<?xml version="1.0" encoding="utf-8"?>
<!-- Generator: Adobe Illustrator 16.0.0, SVG Export Plug-In . SVG Version: 6.00 Build 0)  -->
<!DOCTYPE svg PUBLIC "-//W3C//DTD SVG 1.1//EN" "http://www.w3.org/Graphics/SVG/1.1/DTD/svg11.dtd">
<svg version="1.1" id="Capa_1" xmlns="http://www.w3.org/2000/svg" xmlns:xlink="http://www.w3.org/1999/xlink" x="0px" y="0px"
	 width="512px" height="512px" viewBox="0 0 512 512" enable-background="new 0 0 512 512" xml:space="preserve">
<g>
	<path fill="#0C8A32" d="M256,0C114.841,0,0,114.841,0,256s114.841,256,256,256c141.157,0,255.998-114.841,255.998-256
		S397.157,0,256,0z M256,482.712C130.992,482.712,29.289,381.008,29.289,256C29.289,130.993,130.992,29.29,256,29.29
		c125.007,0,226.71,101.702,226.71,226.71S381.007,482.712,256,482.712z"/>
</g>
<g>
	<g>
		<path fill="#0C8A32" d="M342.846,307.06l-29.78-9.925l-10.691-21.382c9.633-9.804,16.319-22.774,18.574-36.303l1.333-7.992h11.403
			c10.364,0,18.796-8.433,18.796-18.796V173.19c0-51.821-42.159-93.982-93.981-93.982c-51.954,0-93.982,42.04-93.982,93.982v39.473
			c0,8.168,5.238,15.132,12.531,17.718v7.343c0,10.364,8.432,18.797,18.796,18.797h5.502c2.716,5.899,6.231,11.364,10.51,16.273
			c0.887,1.021,1.813,2.009,2.76,2.97l-10.685,21.371l-29.781,9.926c-34.626,11.545-59.758,47.997-59.758,86.673
			c0,3.461,2.805,6.266,6.266,6.266h275.68c3.459,0,6.266-2.805,6.266-6.266C402.605,355.058,377.473,318.606,342.846,307.06z
			 M339.95,212.663c0,3.455-2.812,6.265-6.266,6.265h-9.563c1.594-12.336,2.654-25.464,3.081-38.395
			c0.014-0.364,0.022-0.719,0.035-1.078h12.713V212.663z M183.314,218.928c-3.455,0-6.265-2.811-6.265-6.265v-33.207h12.717
			c0.021,0.653,0.042,1.31,0.066,1.971c0,0.023,0.003,0.044,0.003,0.067c0,0.001,0,0.003,0,0.006
			c0.438,12.575,1.485,25.362,3.042,37.427L183.314,218.928L183.314,218.928z M195.844,243.99c-3.455,0-6.265-2.811-6.265-6.266
			v-6.265h5.136l1.334,7.994c0.254,1.521,0.567,3.034,0.928,4.537H195.844z M189.59,166.925h-12.303
			c3.173-41.992,38.217-75.186,81.213-75.186c42.805,0,78.002,33.19,81.212,75.186h-12.303
			c-0.45-34.603-28.628-62.655-63.302-62.655h-11.214C218.219,104.27,190.04,132.323,189.59,166.925z M252.891,116.801h11.215
			c28.075,0,50.798,22.964,50.781,51.008c0,1.972-0.016,3.688-0.049,5.25c0,0.02,0,0.041,0,0.062l-7.838-1.12
			c-21.289-3.04-41.392-13.091-56.603-28.302c-1.175-1.175-2.769-1.835-4.43-1.835c-16.827,0-32.934,7.667-43.582,20.619
			C205.011,136.969,226.578,116.801,252.891,116.801z M209.967,243.99c-3.136-10.433-6.726-41.134-7.519-60.808l8.433-11.244
			c7.745-10.323,19.794-16.737,32.611-17.473c16.864,16.049,38.683,26.648,61.737,29.94l9.225,1.318
			c-0.618,13.085-1.877,26.217-3.683,38.293c0,0.003,0,0.008-0.001,0.013c-0.573,3.882-1.027,6.38-2.182,13.36
			c-3.318,19.902-18.169,37.899-37.772,42.801c-8.068,2.015-16.568,2.014-24.632,0c-12.241-3.06-23.465-11.529-30.708-23.669h12.772
			c2.586,7.292,9.551,12.53,17.719,12.53h12.531c10.385,0,18.796-8.41,18.796-18.796c0-10.364-8.432-18.796-18.796-18.796h-12.531
			c-8.351,0-15.211,5.394-17.729,12.531H209.967z M245.441,292.871c4.297,0.905,8.679,1.368,13.058,1.368
			c3.428,0,6.856-0.286,10.246-0.843l-11.072,11.708L245.441,292.871z M249.06,314.213l-19.873,21.016
			c-5.471-10.472-10.172-21.37-14.027-32.528l7.462-14.926L249.06,314.213z M293.314,285.651l8.524,17.048
			c-3.863,11.177-8.565,22.079-14.03,32.539l-21.271-21.271L293.314,285.651z M239.703,250.256c0-3.459,2.806-6.266,6.266-6.266
			h12.531c3.454,0,6.266,2.811,6.266,6.266c0,3.46-2.807,6.266-6.266,6.266h-12.531C242.513,256.521,239.703,253.71,239.703,250.256
			z M127.175,387.469c2.483-31.038,23.14-59.25,50.94-68.521l26.373-8.789c4.833,13.361,10.818,26.348,17.833,38.684
			c0.012,0.021,0.023,0.043,0.035,0.063c0,0,0,0,0,0.001c5.126,9.017,10.896,17.826,17.15,26.19l7.708,12.372H127.175z
			 M258.499,381.884l-8.498-13.642c-0.095-0.153-0.196-0.301-0.304-0.445c-5.074-6.768-9.807-13.846-14.117-21.09l22.345-23.63
			l23.544,23.544c-4.341,7.297-9.089,14.405-14.167,21.175C266.995,368.205,267.43,367.56,258.499,381.884z M269.783,387.469
			l7.707-12.372c6.282-8.396,12.093-17.276,17.271-26.398c0.031-0.055,0.061-0.111,0.091-0.166c0.004-0.007,0.008-0.013,0.012-0.021
			c6.927-12.217,12.85-25.092,17.646-38.353l26.374,8.789c27.801,9.271,48.457,37.482,50.939,68.521L269.783,387.469
			L269.783,387.469z"/>
	</g>
</g>
</svg>
